<svg version="1.0" xmlns="http://www.w3.org/2000/svg"
 width="278.000000pt" height="242.000000pt" viewBox="0 0 278.000000 242.000000"
 preserveAspectRatio="xMidYMid meet">

<g transform="translate(0.000000,242.000000) scale(0.100000,-0.100000)"
fill="red" stroke="none">
<path d="M1263 2128 c-35 -40 -81 -113 -106 -170 -46 -104 -62 -184 -61 -318
0 -140 15 -210 68 -325 31 -66 108 -175 124 -175 11 1 96 119 122 170 105 206
109 429 10 646 -28 62 -117 193 -131 194 -3 0 -15 -10 -26 -22z m61 -61 c35
-46 90 -168 112 -247 24 -88 24 -271 0 -359 -18 -67 -69 -176 -114 -243 l-25
-39 -23 22 c-35 32 -109 184 -128 260 -21 86 -21 271 0 358 25 105 116 281
144 281 5 0 20 -15 34 -33z"/>
<path d="M480 1736 c0 -42 33 -174 58 -234 37 -87 107 -193 169 -254 99 -96
262 -188 381 -213 29 -6 32 -10 32 -46 0 -21 -5 -39 -10 -39 -6 0 -37 13 -69
29 -156 79 -358 88 -508 21 -67 -29 -163 -93 -160 -105 6 -18 166 -93 240
-111 47 -13 105 -19 167 -18 80 1 109 6 185 33 140 50 137 49 133 11 -3 -30
-10 -37 -78 -71 -54 -27 -91 -55 -133 -101 -67 -73 -134 -200 -144 -272 l-6
-49 42 24 c68 38 151 109 204 174 64 79 134 223 149 308 l13 67 140 0 141 0
13 -61 c26 -128 125 -293 237 -399 68 -63 174 -131 174 -111 0 30 -54 173 -81
216 -53 84 -166 188 -229 212 -49 18 -56 24 -63 57 -5 20 -7 40 -3 43 3 3 32
-6 65 -21 79 -35 202 -66 265 -66 65 0 175 24 246 52 60 24 150 76 150 87 0
10 -95 70 -155 97 -154 71 -337 65 -510 -17 -34 -16 -67 -29 -73 -29 -7 0 -12
16 -12 39 l0 38 65 18 c233 63 405 213 515 449 59 124 88 256 57 256 -26 0
-163 -39 -212 -61 -188 -82 -347 -259 -423 -471 -20 -57 -27 -97 -30 -185 l-4
-113 -129 0 -129 0 0 68 c-1 324 -215 620 -523 722 -113 38 -157 45 -157 26z
m121 -52 c189 -56 357 -195 443 -367 36 -72 83 -233 72 -245 -19 -18 -187 50
-283 116 -149 101 -279 300 -308 470 -8 49 -5 50 76 26z m1449 -7 c0 -68 -76
-240 -149 -337 -76 -101 -206 -197 -335 -245 -85 -32 -106 -32 -106 -1 0 76
88 272 163 364 78 95 232 194 352 227 70 19 75 18 75 -8z m-1165 -682 c73 -15
197 -71 203 -92 1 -6 -21 -23 -50 -37 -155 -75 -371 -77 -539 -5 -71 31 -78
44 -37 69 117 72 275 96 423 65z m1084 -1 c77 -19 181 -71 181 -90 0 -18 -57
-46 -150 -75 -89 -27 -248 -32 -345 -11 -78 18 -169 62 -173 85 -4 20 87 67
178 91 75 20 228 20 309 0z m-919 -310 c-35 -91 -163 -243 -239 -283 -23 -13
-24 -13 -16 25 17 93 108 211 202 261 32 18 59 30 61 29 1 -2 -2 -16 -8 -32z
m529 2 c87 -45 183 -172 198 -262 l6 -37 -33 19 c-51 30 -156 151 -195 225
-48 92 -48 91 24 55z"/>
<path d="M1228 613 c-31 -32 -63 -72 -72 -90 -48 -95 24 -203 135 -203 38 0
52 6 86 35 87 74 80 144 -25 248 l-68 67 -56 -57z m120 -47 c46 -50 57 -80 48
-131 -15 -76 -127 -108 -183 -52 -24 23 -28 36 -28 83 0 53 2 57 47 100 26 24
53 44 61 44 8 0 33 -20 55 -44z"/>
</g>
</svg>
